<?xml version="1.0" encoding="UTF-8" standalone="no"?>
<!DOCTYPE svg PUBLIC "-//W3C//DTD SVG 1.1//EN"
 "http://www.w3.org/Graphics/SVG/1.1/DTD/svg11.dtd">
<!-- Generated by graphviz version 2.26.3 (20100126.1600)
 -->
<!-- Title: G Pages: 1 -->
<svg width="496pt" height="398pt"
 viewBox="0.00 0.00 496.00 398.00" xmlns="http://www.w3.org/2000/svg" xmlns:xlink="http://www.w3.org/1999/xlink">
<g id="graph1" class="graph" transform="scale(1 1) rotate(0) translate(4 394)">
<title>G</title>
<polygon fill="white" stroke="white" points="-4,5 -4,-394 493,-394 493,5 -4,5"/>
<text text-anchor="middle" x="244" y="-8.4" font-family="Times Roman,serif" font-size="14.00">Device Workflow</text>
<g id="graph2" class="cluster"><title>cluster0</title>
<polygon fill="#f2f2f2" stroke="#f2f2f2" points="120,-89 120,-382 398,-382 398,-89 120,-89"/>
<text text-anchor="middle" x="259" y="-365.4" font-family="Times Roman,serif" font-size="14.00">In Progress</text>
</g>
<!-- shelf -->
<g id="node1" class="node"><title>shelf</title>
<ellipse fill="white" stroke="black" cx="55" cy="-319" rx="48.8383" ry="18"/>
<text text-anchor="middle" x="55" y="-314.9" font-family="Times Roman,serif" font-size="14.00">Shelved</text>
</g>
<!-- scrap -->
<g id="node4" class="node"><title>scrap</title>
<ellipse fill="white" stroke="black" cx="55" cy="-223" rx="55.0898" ry="18"/>
<text text-anchor="middle" x="55" y="-218.9" font-family="Times Roman,serif" font-size="14.00">Scrapped</text>
</g>
<!-- shelf&#45;&gt;scrap -->
<g id="edge30" class="edge"><title>shelf&#45;&gt;scrap</title>
<path fill="none" stroke="black" d="M55,-300.943C55,-287.086 55,-267.686 55,-251.708"/>
<polygon fill="black" stroke="black" points="58.5001,-251.302 55,-241.302 51.5001,-251.302 58.5001,-251.302"/>
</g>
<!-- in -->
<g id="node8" class="node"><title>in</title>
<ellipse fill="white" stroke="black" cx="194" cy="-319" rx="41.9273" ry="29.6985"/>
<text text-anchor="middle" x="194" y="-323.4" font-family="Times Roman,serif" font-size="14.00">In for</text>
<text text-anchor="middle" x="194" y="-306.4" font-family="Times Roman,serif" font-size="14.00">Repair</text>
</g>
<!-- shelf&#45;&gt;in -->
<g id="edge28" class="edge"><title>shelf&#45;&gt;in</title>
<path fill="none" stroke="black" d="M104.139,-319C116.695,-319 129.251,-319 141.808,-319"/>
<polygon fill="black" stroke="black" points="141.878,-322.5 151.878,-319 141.877,-315.5 141.878,-322.5"/>
</g>
<!-- lost -->
<g id="node2" class="node"><title>lost</title>
<ellipse fill="white" stroke="black" cx="447" cy="-43" rx="31.9646" ry="18"/>
<text text-anchor="middle" x="447" y="-38.9" font-family="Times Roman,serif" font-size="14.00">Lost</text>
</g>
<!-- use -->
<g id="node3" class="node"><title>use</title>
<ellipse fill="white" stroke="black" cx="447" cy="-127" rx="41.1906" ry="18"/>
<text text-anchor="middle" x="447" y="-122.9" font-family="Times Roman,serif" font-size="14.00">In Use</text>
</g>
<!-- lost&#45;&gt;use -->
<g id="edge12" class="edge"><title>lost&#45;&gt;use</title>
<path fill="none" stroke="black" d="M452.645,-60.9026C453.776,-71.8104 454.039,-85.9955 453.434,-98.4267"/>
<polygon fill="black" stroke="black" points="449.916,-98.545 452.678,-108.773 456.897,-99.0546 449.916,-98.545"/>
</g>
<!-- use&#45;&gt;lost -->
<g id="edge10" class="edge"><title>use&#45;&gt;lost</title>
<path fill="none" stroke="black" d="M441.322,-108.773C440.208,-97.8012 439.962,-83.6016 440.585,-71.2054"/>
<polygon fill="black" stroke="black" points="444.099,-71.1357 441.355,-60.9026 437.119,-70.6138 444.099,-71.1357"/>
</g>
<!-- con -->
<g id="node7" class="node"><title>con</title>
<ellipse fill="white" stroke="black" cx="324" cy="-223" rx="66.2071" ry="18"/>
<text text-anchor="middle" x="324" y="-218.9" font-family="Times Roman,serif" font-size="14.00">Confiscated</text>
</g>
<!-- use&#45;&gt;con -->
<g id="edge18" class="edge"><title>use&#45;&gt;con</title>
<path fill="none" stroke="black" d="M430.974,-143.609C412.562,-159.374 382.238,-183.186 358.484,-200.62"/>
<polygon fill="black" stroke="black" points="356.424,-197.791 350.386,-206.497 360.536,-203.456 356.424,-197.791"/>
</g>
<!-- use&#45;&gt;in -->
<g id="edge14" class="edge"><title>use&#45;&gt;in</title>
<path fill="none" stroke="black" d="M445.034,-145.147C441.128,-172.363 429.906,-223.676 399,-253 357.267,-292.597 291.647,-308.438 245.928,-314.775"/>
<polygon fill="black" stroke="black" points="245.39,-311.315 235.915,-316.055 246.278,-318.258 245.39,-311.315"/>
</g>
<!-- ac -->
<g id="node6" class="node"><title>ac</title>
<ellipse fill="white" stroke="black" cx="194" cy="-127" rx="58.8978" ry="29.6985"/>
<text text-anchor="middle" x="194" y="-131.4" font-family="Times Roman,serif" font-size="14.00">Awaiting</text>
<text text-anchor="middle" x="194" y="-114.4" font-family="Times Roman,serif" font-size="14.00">Collection</text>
</g>
<!-- ac&#45;&gt;use -->
<g id="edge16" class="edge"><title>ac&#45;&gt;use</title>
<path fill="none" stroke="black" d="M253.297,-127C300.744,-127 348.191,-127 395.638,-127"/>
<polygon fill="black" stroke="black" points="395.762,-130.5 405.762,-127 395.762,-123.5 395.762,-130.5"/>
</g>
<!-- con&#45;&gt;use -->
<g id="edge20" class="edge"><title>con&#45;&gt;use</title>
<path fill="none" stroke="black" d="M341.196,-205.392C360.332,-189.097 391.28,-164.865 414.865,-147.661"/>
<polygon fill="black" stroke="black" points="417.116,-150.353 423.185,-141.668 413.025,-144.673 417.116,-150.353"/>
</g>
<!-- con&#45;&gt;ac -->
<g id="edge3" class="edge"><title>con&#45;&gt;ac</title>
<path fill="none" stroke="black" d="M301.058,-206.058C282.96,-192.694 257.24,-173.7 235.545,-157.679"/>
<polygon fill="black" stroke="black" points="237.575,-154.828 227.452,-151.703 233.417,-160.459 237.575,-154.828"/>
</g>
<!-- in&#45;&gt;shelf -->
<g id="edge22" class="edge"><title>in&#45;&gt;shelf</title>
<path fill="none" stroke="black" d="M151.878,-319C139.321,-319 126.765,-319 114.209,-319"/>
<polygon fill="black" stroke="black" points="114.139,-315.5 104.139,-319 114.139,-322.5 114.139,-315.5"/>
</g>
<!-- in&#45;&gt;scrap -->
<g id="edge24" class="edge"><title>in&#45;&gt;scrap</title>
<path fill="none" stroke="black" d="M163.839,-298.169C141.183,-282.522 110.21,-261.131 87.0977,-245.168"/>
<polygon fill="black" stroke="black" points="88.8755,-242.142 78.6582,-239.339 84.8975,-247.902 88.8755,-242.142"/>
</g>
<!-- in&#45;&gt;ac -->
<g id="edge26" class="edge"><title>in&#45;&gt;ac</title>
<path fill="none" stroke="black" d="M167.639,-295.668C156.531,-284.085 144.839,-269.128 139,-253 129.922,-227.926 129.922,-218.074 139,-193 143.245,-181.276 150.582,-170.172 158.539,-160.532"/>
<polygon fill="black" stroke="black" points="161.358,-162.626 165.315,-152.798 156.092,-158.013 161.358,-162.626"/>
</g>
<!-- out -->
<g id="node9" class="node"><title>out</title>
<ellipse fill="white" stroke="black" cx="194" cy="-223" rx="46.1672" ry="29.6985"/>
<text text-anchor="middle" x="194" y="-227.4" font-family="Times Roman,serif" font-size="14.00">Out for</text>
<text text-anchor="middle" x="194" y="-210.4" font-family="Times Roman,serif" font-size="14.00">Repair</text>
</g>
<!-- in&#45;&gt;out -->
<g id="edge5" class="edge"><title>in&#45;&gt;out</title>
<path fill="none" stroke="black" d="M187.726,-289.675C187.267,-281.102 187.14,-271.587 187.345,-262.492"/>
<polygon fill="black" stroke="black" points="190.843,-262.599 187.718,-252.476 183.848,-262.339 190.843,-262.599"/>
</g>
<!-- out&#45;&gt;ac -->
<g id="edge6" class="edge"><title>out&#45;&gt;ac</title>
<path fill="none" stroke="black" d="M194,-193.414C194,-185.019 194,-175.739 194,-166.843"/>
<polygon fill="black" stroke="black" points="197.5,-166.654 194,-156.654 190.5,-166.654 197.5,-166.654"/>
</g>
<!-- out&#45;&gt;in -->
<g id="edge8" class="edge"><title>out&#45;&gt;in</title>
<path fill="none" stroke="black" d="M200.282,-252.476C200.737,-261.06 200.86,-270.579 200.651,-279.668"/>
<polygon fill="black" stroke="black" points="197.153,-279.55 200.274,-289.675 204.148,-279.814 197.153,-279.55"/>
</g>
</g>
</svg>
