<?xml version="1.0" encoding="UTF-8" standalone="no"?>
<!DOCTYPE svg PUBLIC "-//W3C//DTD SVG 1.1//EN"
 "http://www.w3.org/Graphics/SVG/1.1/DTD/svg11.dtd">
<!-- Generated by graphviz version 2.26.3 (20100126.1600)
 -->
<!-- Title: G Pages: 1 -->
<svg width="323pt" height="201pt"
 viewBox="0.00 0.00 322.70 201.40" xmlns="http://www.w3.org/2000/svg" xmlns:xlink="http://www.w3.org/1999/xlink">
<g id="graph1" class="graph" transform="scale(1 1) rotate(0) translate(4 197.4)">
<title>G</title>
<polygon fill="white" stroke="white" points="-4,5 -4,-197.4 319.702,-197.4 319.702,5 -4,5"/>
<text text-anchor="middle" x="157.351" y="-8.4" font-family="Times Roman,serif" font-size="14.00">Key Workflow</text>
<!-- ac -->
<g id="node1" class="node"><title>ac</title>
<ellipse fill="none" stroke="black" cx="63.6169" cy="-69.0791" rx="58.8978" ry="29.6985"/>
<text text-anchor="middle" x="63.6169" y="-73.4791" font-family="Times Roman,serif" font-size="14.00">Awaiting</text>
<text text-anchor="middle" x="63.6169" y="-56.4791" font-family="Times Roman,serif" font-size="14.00">Collection</text>
</g>
<!-- use -->
<g id="node2" class="node"><title>use</title>
<ellipse fill="none" stroke="black" cx="160.857" cy="-111.559" rx="41.1906" ry="18"/>
<text text-anchor="middle" x="160.857" y="-107.459" font-family="Times Roman,serif" font-size="14.00">In Use</text>
</g>
<!-- ac&#45;&gt;use -->
<g id="edge2" class="edge"><title>ac&#45;&gt;use</title>
<path fill="none" stroke="black" d="M108.252,-88.5783C112.995,-90.6504 117.789,-92.7446 122.452,-94.7816"/>
<polygon fill="black" stroke="black" points="121.215,-98.0606 131.78,-98.8566 124.018,-91.646 121.215,-98.0606"/>
</g>
<!-- scrap -->
<g id="node3" class="node"><title>scrap</title>
<ellipse fill="none" stroke="black" cx="197.879" cy="-44" rx="55.0898" ry="18"/>
<text text-anchor="middle" x="197.879" y="-39.9" font-family="Times Roman,serif" font-size="14.00">Scrapped</text>
</g>
<!-- use&#45;&gt;scrap -->
<g id="edge6" class="edge"><title>use&#45;&gt;scrap</title>
<path fill="none" stroke="black" d="M170.584,-93.8085C174.464,-86.7275 179.015,-78.4231 183.277,-70.647"/>
<polygon fill="black" stroke="black" points="186.352,-72.3179 188.088,-61.8663 180.213,-68.9538 186.352,-72.3179"/>
</g>
<!-- lost -->
<g id="node4" class="node"><title>lost</title>
<ellipse fill="none" stroke="black" cx="241.202" cy="-152.851" rx="71.7694" ry="18"/>
<text text-anchor="middle" x="241.202" y="-148.751" font-family="Times Roman,serif" font-size="14.00">Lost / Stolen</text>
</g>
<!-- use&#45;&gt;lost -->
<g id="edge4" class="edge"><title>use&#45;&gt;lost</title>
<path fill="none" stroke="black" d="M187.61,-125.309C191.784,-127.454 196.177,-129.711 200.577,-131.972"/>
<polygon fill="black" stroke="black" points="199.056,-135.126 209.55,-136.584 202.256,-128.9 199.056,-135.126"/>
</g>
<!-- in -->
<g id="node5" class="node"><title>in</title>
<ellipse fill="none" stroke="black" cx="75" cy="-162.9" rx="74.2462" ry="29.6985"/>
<text text-anchor="middle" x="75" y="-167.3" font-family="Times Roman,serif" font-size="14.00">In for</text>
<text text-anchor="middle" x="75" y="-150.3" font-family="Times Roman,serif" font-size="14.00">Maintenance</text>
</g>
<!-- use&#45;&gt;in -->
<g id="edge10" class="edge"><title>use&#45;&gt;in</title>
<path fill="none" stroke="black" d="M136.483,-126.134C132.815,-128.327 128.922,-130.655 124.947,-133.032"/>
<polygon fill="black" stroke="black" points="122.954,-130.146 116.168,-138.282 126.547,-136.153 122.954,-130.146"/>
</g>
<!-- in&#45;&gt;ac -->
<g id="edge8" class="edge"><title>in&#45;&gt;ac</title>
<path fill="none" stroke="black" d="M71.3983,-133.214C70.4549,-125.438 69.4225,-116.929 68.427,-108.724"/>
<polygon fill="black" stroke="black" points="71.8742,-108.077 67.1952,-98.5714 64.9252,-108.92 71.8742,-108.077"/>
</g>
</g>
</svg>
