<?xml version="1.0" encoding="UTF-8" standalone="no"?>
<!DOCTYPE svg PUBLIC "-//W3C//DTD SVG 1.1//EN"
 "http://www.w3.org/Graphics/SVG/1.1/DTD/svg11.dtd">
<!-- Generated by graphviz version 2.26.3 (20100126.1600)
 -->
<!-- Title: G Pages: 1 -->
<svg width="281pt" height="130pt"
 viewBox="0.00 0.00 281.31 129.73" xmlns="http://www.w3.org/2000/svg" xmlns:xlink="http://www.w3.org/1999/xlink">
<g id="graph1" class="graph" transform="scale(1 1) rotate(0) translate(4 125.735)">
<title>G</title>
<polygon fill="white" stroke="white" points="-4,5 -4,-125.735 278.311,-125.735 278.311,5 -4,5"/>
<text text-anchor="middle" x="136.656" y="-8.4" font-family="Times Roman,serif" font-size="14.00">Software Workflow</text>
<!-- app -->
<g id="node1" class="node"><title>app</title>
<ellipse fill="none" stroke="black" cx="75" cy="-91.2347" rx="74.2462" ry="29.6985"/>
<text text-anchor="middle" x="75" y="-95.6347" font-family="Times Roman,serif" font-size="14.00">Approved for</text>
<text text-anchor="middle" x="75" y="-78.6347" font-family="Times Roman,serif" font-size="14.00">install</text>
</g>
<!-- in -->
<g id="node2" class="node"><title>in</title>
<ellipse fill="none" stroke="black" cx="220.311" cy="-97.1204" rx="52.1162" ry="18"/>
<text text-anchor="middle" x="220.311" y="-93.0204" font-family="Times Roman,serif" font-size="14.00">Installed</text>
</g>
<!-- app&#45;&gt;in -->
<g id="edge2" class="edge"><title>app&#45;&gt;in</title>
<path fill="none" stroke="black" d="M148.933,-94.2293C152.022,-94.3544 155.108,-94.4794 158.169,-94.6034"/>
<polygon fill="black" stroke="black" points="158.312,-98.1119 168.445,-95.0196 158.595,-91.1177 158.312,-98.1119"/>
</g>
<!-- rm -->
<g id="node3" class="node"><title>rm</title>
<ellipse fill="none" stroke="black" cx="157.863" cy="-44" rx="55.0898" ry="18"/>
<text text-anchor="middle" x="157.863" y="-39.9" font-family="Times Roman,serif" font-size="14.00">Removed</text>
</g>
<!-- in&#45;&gt;rm -->
<g id="edge3" class="edge"><title>in&#45;&gt;rm</title>
<path fill="none" stroke="black" d="M200.552,-80.3128C195.768,-76.2435 190.568,-71.8196 185.495,-67.5048"/>
<polygon fill="black" stroke="black" points="187.593,-64.6939 177.708,-60.8806 183.057,-70.0259 187.593,-64.6939"/>
</g>
<!-- rm&#45;&gt;app -->
<g id="edge4" class="edge"><title>rm&#45;&gt;app</title>
<path fill="none" stroke="black" d="M130.271,-59.7285C128.976,-60.4665 127.661,-61.2161 126.332,-61.974"/>
<polygon fill="black" stroke="black" points="124.364,-59.0665 117.41,-67.0595 127.831,-65.1479 124.364,-59.0665"/>
</g>
</g>
</svg>
